HIERARCHY
ROOT Hips
{
	OFFSET	0.000000	0.000000	0.000000
	CHANNELS 6 Xposition Yposition Zposition Zrotation Xrotation Yrotation
	JOINT LeftUpLeg
	{
		OFFSET	12.811937	-7.635976	0.557276
		CHANNELS 3 Zrotation Xrotation Yrotation
		JOINT LeftLeg
		{
			OFFSET	-0.429270	-42.206159	-1.204951
			CHANNELS 3 Zrotation Xrotation Yrotation
			JOINT LeftFoot
			{
				OFFSET	-2.112259	-42.464481	-3.973220
				CHANNELS 3 Zrotation Xrotation Yrotation
				JOINT LeftFootHeel
				{
					OFFSET	0.387196	-5.329707	-3.419729
					CHANNELS 3 Zrotation Xrotation Yrotation
					End Site
					{
						OFFSET	0.327567	-0.000003	16.505428
					}
				}
			}
		}
	}
	JOINT RightUpLeg
	{
		OFFSET	-12.811937	-7.635976	0.557276
		CHANNELS 3 Zrotation Xrotation Yrotation
		JOINT RightLeg
		{
			OFFSET	0.429270	-42.206159	-1.204951
			CHANNELS 3 Zrotation Xrotation Yrotation
			JOINT RightFoot
			{
				OFFSET	2.112259	-42.464481	-3.973220
				CHANNELS 3 Zrotation Xrotation Yrotation
				JOINT RightFootHeel
				{
					OFFSET	-0.387198	-5.329707	-3.419729
					CHANNELS 3 Zrotation Xrotation Yrotation
					End Site
					{
						OFFSET	-0.327566	-0.000003	16.505428
					}
				}
			}
		}
	}
	JOINT Spine
	{
		OFFSET	0.000000	13.731315	-1.007646
		CHANNELS 3 Zrotation Xrotation Yrotation
		JOINT Spine1
		{
			OFFSET	0.000000	12.091746	-0.604589
			CHANNELS 3 Zrotation Xrotation Yrotation
			JOINT LeftShoulder
			{
				OFFSET	5.746115	20.990027	-0.833816
				CHANNELS 3 Zrotation Xrotation Yrotation
				JOINT LeftArm
				{
					OFFSET	10.881538	-1.359258	0.219250
					CHANNELS 3 Zrotation Xrotation Yrotation
					JOINT LeftForeArm
					{
						OFFSET	4.390314	-31.537147	0.202818
						CHANNELS 3 Zrotation Xrotation Yrotation
						JOINT LeftHand
						{
							OFFSET	3.168650	-24.865023	5.373370
							CHANNELS 3 Zrotation Xrotation Yrotation
							End Site
							{
								OFFSET	1.457528	-10.806075	2.170267
							}
						}
					}
				}
			}
			JOINT RightShoulder
			{
				OFFSET	-5.746115	20.990027	-0.833816
				CHANNELS 3 Zrotation Xrotation Yrotation
				JOINT RightArm
				{
					OFFSET	-10.881538	-1.359258	0.219250
					CHANNELS 3 Zrotation Xrotation Yrotation
					JOINT RightForeArm
					{
						OFFSET	-4.390314	-31.537147	0.202818
						CHANNELS 3 Zrotation Xrotation Yrotation
						JOINT RightHand
						{
							OFFSET	-3.168650	-24.865023	5.373370
							CHANNELS 3 Zrotation Xrotation Yrotation
							End Site
							{
								OFFSET	-1.457528	-10.806075	2.170267
							}
						}
					}
				}
			}
			JOINT Neck
			{
				OFFSET	0.000000	27.075639	0.680489
				CHANNELS 3 Zrotation Xrotation Yrotation
				JOINT Head
				{
					OFFSET	0.000000	12.391287	1.239129
					CHANNELS 3 Zrotation Xrotation Yrotation
					End Site
					{
						OFFSET	0.000000	13.818691	-0.105853
					}
				}
			}
		}
	}
}
MOTION
Frames:     10
Frame Time: 0.016667
0.000000	100.468614	0.000000	0.036817	1.154578	-5.301302	-0.965008	0.648064	3.098943	1.917031	-2.046295	2.522408	-2.250985	1.251576	3.550160	0.	0.	0.	-0.674671	2.570425	7.591442	-0.011470	-2.198678	-4.432499	1.875387	-1.215053	-0.323298	0.	0.	0.	0.000000	0.000000	0.000001	-0.256524	6.333272	9.052254	0.460307	0.770416	3.142491	4.723971	-2.763413	-11.868788	-2.679255	-4.652348	0.267212	2.533091	-2.030818	-11.600937	0.350975	1.844433	0.678956	-2.090537	-4.125998	5.995332	2.856691	-0.797382	-2.728292	-0.729351	1.794947	12.764927	4.370337	0.009660	-16.124887	-0.567191	-9.872660	6.832059	
0.000810	100.468818	-0.004291	0.036817	1.154578	-5.301302	-0.966711	0.639576	3.037010	1.918133	-2.035608	2.553607	-2.248413	1.250008	3.580487	0.	0.	0.	-0.682312	2.578101	7.522351	-0.006332	-2.206587	-4.394176	1.880175	-1.214436	-0.292293	0.	0.	0.	0.000000	0.000000	0.000001	-0.267150	6.333240	9.041007	0.460377	0.733492	3.108551	4.661819	-2.749802	-11.961384	-2.691370	-4.658038	0.255193	2.445729	-2.057396	-11.326690	0.361688	1.802926	0.665006	-2.064116	-4.098614	5.947703	2.859550	-0.792483	-2.743555	-0.822820	1.797182	12.829475	4.380771	0.008981	-16.112379	-0.532210	-9.845626	6.724390	
0.001224	100.469137	-0.009654	0.036817	1.154578	-5.301302	-0.968292	0.631555	2.976287	1.922275	-2.025650	2.614086	-2.248413	1.250008	3.580487	0.	0.	0.	-0.689957	2.585799	7.452274	0.002057	-2.215065	-4.330508	1.881224	-1.214297	-0.285520	0.	0.	0.	0.000000	0.000000	0.000001	-0.268807	6.335103	9.008541	0.450928	0.695415	3.093730	4.613884	-2.731972	-12.038290	-2.708864	-4.646646	0.301925	2.449094	-2.077572	-11.054885	0.362484	1.772784	0.679029	-2.040335	-4.081738	5.898288	2.867818	-0.790835	-2.779186	-0.976428	1.780204	12.847297	4.382100	0.009385	-16.079670	-0.496129	-9.817794	6.613386	
0.002195	100.469244	-0.012620	0.036817	1.154578	-5.301302	-0.969680	0.624454	2.920513	1.921559	-2.016450	2.631727	-2.244831	1.248014	3.618212	0.	0.	0.	-0.696837	2.592743	7.388490	0.010460	-2.222831	-4.266362	1.881224	-1.214297	-0.285520	0.	0.	0.	0.000000	0.000000	0.000001	-0.276467	6.337116	8.967062	0.447215	0.657253	3.089988	4.584143	-2.710907	-12.102635	-2.703845	-4.617785	0.320474	2.517736	-2.082672	-10.862770	0.368864	1.742476	0.703290	-2.019864	-4.064195	5.858252	2.878086	-0.791078	-2.822555	-1.153036	1.743008	12.800997	4.383896	0.009993	-16.116550	-0.439847	-9.788726	6.579493	
0.002614	100.469157	-0.012115	0.036817	1.154578	-5.301302	-0.969874	0.623241	2.908009	1.919032	-2.014606	2.616328	-2.242228	1.246556	3.645934	0.	0.	0.	-0.700208	2.596138	7.356946	0.014595	-2.226624	-4.234640	1.881224	-1.214297	-0.285520	0.	0.	0.	0.000000	0.000000	0.000001	-0.295998	6.336458	8.957197	0.461109	0.637095	3.078694	4.583484	-2.696462	-12.121922	-2.689837	-4.607721	0.318796	2.560333	-2.082665	-10.817080	0.387932	1.731071	0.709312	-2.010340	-4.059679	5.836565	2.882091	-0.790785	-2.840152	-1.166964	1.747889	12.847274	4.399857	0.008884	-16.153061	-0.409325	-9.773915	6.570931	
0.003893	100.468827	-0.009308	0.036817	1.154578	-5.301302	-0.970161	0.621455	2.889620	1.910239	-2.011545	2.548995	-2.234311	1.242105	3.731168	0.	0.	0.	-0.711861	2.607864	7.246109	0.028994	-2.239690	-4.123185	1.881224	-1.214297	-0.285520	0.	0.	0.	0.000000	0.000000	0.000001	-0.388587	6.330487	8.956574	0.536865	0.575338	3.020057	4.610909	-2.642610	-12.117544	-2.628361	-4.598214	0.254889	2.620335	-2.031196	-10.796365	0.466328	1.701238	0.657339	-1.993805	-4.049350	5.841114	2.914726	-0.794539	-2.893564	-1.292290	1.748066	12.828498	4.482389	0.002269	-16.278162	-0.320255	-9.729243	6.535582	
0.004195	100.468788	-0.009280	0.036817	1.154578	-5.301302	-0.970424	0.619787	2.872480	1.908433	-2.009130	2.541903	-2.232094	1.240853	3.755223	0.	0.	0.	-0.715860	2.611887	7.207815	0.033958	-2.244164	-4.084679	1.881224	-1.214297	-0.285520	0.	0.	0.	0.000000	0.000000	0.000001	-0.401710	6.329645	8.956220	0.544405	0.556023	2.998301	4.618326	-2.622947	-12.095403	-2.606223	-4.594800	0.210629	2.621114	-1.987752	-10.818751	0.473935	1.691771	0.633852	-2.006841	-4.042514	5.859098	2.932783	-0.804408	-2.918704	-1.314598	1.775719	12.825604	4.492633	0.001502	-16.316916	-0.291624	-9.714229	6.518438	
0.004592	100.468788	-0.010340	0.036817	1.154578	-5.301302	-0.971182	0.615073	2.824100	1.906264	-2.002513	2.546239	-2.228214	1.238598	3.798909	0.	0.	0.	-0.725273	2.621424	7.117033	0.045681	-2.254735	-3.993391	1.881224	-1.214297	-0.285520	0.	0.	0.	0.000000	0.000000	0.000001	-0.428122	6.298839	8.902862	0.558227	0.529355	2.984817	4.682495	-2.561712	-12.059238	-2.576468	-4.597009	0.104762	2.617137	-1.839188	-10.907676	0.501080	1.668334	0.646795	-2.066233	-3.995429	5.879166	2.987994	-0.822869	-2.940567	-1.395919	1.887238	12.831724	4.513347	0.033250	-16.409452	-0.196870	-9.666265	6.482995	
0.003934	100.466822	-0.011656	0.036817	1.154578	-5.301302	-0.971770	0.611413	2.786640	1.904365	-1.997349	2.546711	-2.220863	1.227712	3.838254	0.	0.	0.	-0.731135	2.627317	7.058999	0.051006	-2.260922	-3.950651	1.883628	-1.213978	-0.269985	0.	0.	0.	0.000000	0.000000	0.000001	-0.455376	6.293065	8.854856	0.574314	0.494975	2.988591	4.759943	-2.517141	-12.055414	-2.583325	-4.607832	0.045628	2.549096	-1.757898	-10.947674	0.527559	1.652474	0.686012	-2.111959	-3.979174	5.873773	2.993519	-0.844333	-2.934732	-1.429898	1.977571	12.824478	4.534640	0.039461	-16.451845	-0.134154	-9.633589	6.451826	
0.003934	100.466822	-0.011656	0.036817	1.154578	-5.301302	-0.971770	0.611413	2.786640	1.904365	-1.997349	2.546711	-2.220863	1.227712	3.838254	0.	0.	0.	-0.731135	2.627317	7.058999	0.051006	-2.260922	-3.950651	1.883628	-1.213978	-0.269985	0.	0.	0.	0.000000	0.000000	0.000001	-0.503863	6.293055	8.804932	0.621465	0.488164	3.043908	4.822394	-2.508975	-12.071414	-2.588132	-4.619051	-0.046642	2.460904	-1.702855	-10.951927	0.574233	1.609947	0.717791	-2.157414	-3.945563	5.880676	2.998813	-0.866164	-2.928909	-1.475007	2.056599	12.816753	4.575890	0.037163	-16.489182	-0.097818	-9.607008	6.417544	
